<?xml version="1.0" encoding="utf-8"?>
<!-- Generator: Adobe Illustrator 24.3.0, SVG Export Plug-In . SVG Version: 6.00 Build 0)  -->
<svg version="1.1" id="Layer_1" xmlns="http://www.w3.org/2000/svg" xmlns:xlink="http://www.w3.org/1999/xlink" x="0px" y="0px"
	 viewBox="0 0 20 20" style="enable-background:new 0 0 20 20;" xml:space="preserve">
<g>
	<path d="M10,8.7H3c-0.7,0-1.2,0.6-1.2,1.2v7c0,0.7,0.6,1.2,1.2,1.2h7c0.7,0,1.2-0.6,1.2-1.2v-7C11.2,9.3,10.7,8.7,10,8.7z"/>
	<path d="M17,0.2h-7C8.5,0.2,7.2,1.5,7.2,3v1.5c0,0.4,0.3,0.8,0.8,0.8s0.8-0.3,0.8-0.8V3c0-0.7,0.6-1.2,1.2-1.2h7
		c0.7,0,1.2,0.6,1.2,1.2v7c0,0.7-0.6,1.2-1.2,1.2h-1.5c-0.4,0-0.8,0.3-0.8,0.8s0.3,0.8,0.8,0.8H17c1.5,0,2.8-1.2,2.8-2.8V3
		C19.8,1.5,18.5,0.2,17,0.2z"/>
	<path d="M10,7.2H3c-1.5,0-2.8,1.2-2.8,2.8v7c0,1.5,1.2,2.8,2.8,2.8h7c1.5,0,2.8-1.2,2.8-2.8v-7C12.8,8.5,11.5,7.2,10,7.2z M12,17
		c0,1.1-0.9,2-2,2H3c-1.1,0-2-0.9-2-2v-7c0-1.1,0.9-2,2-2h7c1.1,0,2,0.9,2,2V17z"/>
	<path d="M10,8H3c-1.1,0-2,0.9-2,2v7c0,1.1,0.9,2,2,2h7c1.1,0,2-0.9,2-2v-7C12,8.9,11.1,8,10,8z M11.2,17c0,0.7-0.6,1.2-1.2,1.2H3
		c-0.7,0-1.2-0.6-1.2-1.2v-7c0-0.7,0.6-1.2,1.2-1.2h7c0.7,0,1.2,0.6,1.2,1.2V17z"/>
</g>
</svg>
