<?xml version="1.0" encoding="utf-8"?>
<!-- Generator: Adobe Illustrator 24.3.0, SVG Export Plug-In . SVG Version: 6.00 Build 0)  -->
<svg version="1.1" id="Layer_1" xmlns="http://www.w3.org/2000/svg" xmlns:xlink="http://www.w3.org/1999/xlink" x="0px" y="0px"
	 viewBox="0 0 20 20" style="enable-background:new 0 0 20 20;" xml:space="preserve">
<path d="M19.5,18.5l-4.8-4.8c1.2-1.4,1.9-3.2,1.9-5.2c0-4.5-3.7-8.2-8.2-8.2S0.2,3.9,0.2,8.4s3.7,8.2,8.2,8.2c2,0,3.8-0.7,5.2-1.9
	l4.8,4.8c0.1,0.1,0.3,0.2,0.5,0.2s0.4-0.1,0.5-0.2C19.8,19.2,19.8,18.8,19.5,18.5z M1.8,8.4c0-3.7,3-6.7,6.7-6.7s6.7,3,6.7,6.7
	s-3,6.7-6.7,6.7S1.8,12.1,1.8,8.4z"/>
</svg>
