<?xml version="1.0" encoding="utf-8"?>
<!-- Generator: Adobe Illustrator 24.3.0, SVG Export Plug-In . SVG Version: 6.00 Build 0)  -->
<svg version="1.1" id="Layer_1" xmlns="http://www.w3.org/2000/svg" xmlns:xlink="http://www.w3.org/1999/xlink" x="0px" y="0px"
	 viewBox="0 0 20 19" style="enable-background:new 0 0 20 19;" xml:space="preserve">
<path d="M19.8,0.1C19.7,0,19.6,0,19.4,0L0.3,7.9C0.1,8,0,8.2,0,8.3c0,0.2,0.1,0.3,0.3,0.4l5.3,2c0.1,0.1,0.3,0,0.4,0l7-5
	c0.2-0.1,0.4-0.1,0.6,0.1c0.1,0.2,0.1,0.4,0,0.6L7.6,12c-0.1,0.1-0.1,0.2-0.1,0.3v5.6c0,0.2,0.1,0.4,0.3,0.4c0.2,0,0.4,0,0.5-0.2
	l2.6-4.5c0.1-0.1,0.2-0.1,0.3-0.1l4.9,2.7c0.1,0.1,0.3,0.1,0.4,0s0.2-0.2,0.2-0.3L20,0.5C20,0.4,20,0.2,19.8,0.1z"/>
</svg>
